<svg width="393" height="140" viewBox="0 0 393 140" fill="none" xmlns="http://www.w3.org/2000/svg">
<path d="M0 98.877C0 75.9978 17.9086 57.4505 40 57.4505H353C375.091 57.4505 393 75.9978 393 98.877V140H0V98.877Z" fill="white"/>
<path d="M192.71 1.11002C195.185 -0.370005 198.235 -0.370006 200.71 1.11002L234.894 21.5499C237.369 23.03 238.894 25.7652 238.894 28.7252V69.6051C238.894 72.5651 237.369 75.3003 234.894 76.7803L200.71 97.2203C198.235 98.7003 195.185 98.7003 192.71 97.2203L158.526 76.7804C156.051 75.3003 154.526 72.5651 154.526 69.6051V28.7252C154.526 25.7652 156.051 23.03 158.526 21.55L192.71 1.11002Z" fill="#08B783"/>
</svg>
