<svg width="18" height="18" viewBox="0 0 18 18" fill="none" xmlns="http://www.w3.org/2000/svg">
<path fill-rule="evenodd" clip-rule="evenodd" d="M9.00013 2.71777C11.458 2.71777 13.4505 4.71026 13.4505 7.16811V7.43616C13.4505 8.41958 13.1432 9.37842 12.5716 10.1787L9.00893 15.1664C9.00462 15.1724 8.99565 15.1724 8.99134 15.1664L5.42868 10.1787C4.85708 9.37842 4.5498 8.41958 4.5498 7.43616V7.1681C4.5498 4.71025 6.54228 2.71777 9.00013 2.71777ZM10.9547 6.74852C10.8189 6.15371 10.4197 5.65309 9.86999 5.38837C9.3203 5.12365 8.67997 5.12365 8.13028 5.38837C7.58059 5.65309 7.18136 6.15371 7.04559 6.74852C6.90983 7.34334 7.05232 7.9676 7.43271 8.44461C7.81311 8.92161 8.39002 9.19944 9.00013 9.19944C9.61025 9.19944 10.1872 8.92161 10.5676 8.44461C10.948 7.96761 11.0904 7.34334 10.9547 6.74852Z" fill="#414141"/>
<path d="M12.5716 10.1787L13.7922 11.0505V11.0505L12.5716 10.1787ZM9.00893 15.1664L7.78833 14.2945L7.78827 14.2946L9.00893 15.1664ZM8.99134 15.1664L10.212 14.2946L10.2119 14.2945L8.99134 15.1664ZM5.42868 10.1787L4.20808 11.0505H4.20808L5.42868 10.1787ZM9.86999 5.38837L9.21916 6.73982L9.86999 5.38837ZM10.9547 6.74852L12.4171 6.41474L10.9547 6.74852ZM8.13028 5.38837L8.78111 6.73982L8.13028 5.38837ZM7.04559 6.74852L8.50799 7.0823L7.04559 6.74852ZM7.43271 8.44461L6.25997 9.37984L6.25997 9.37984L7.43271 8.44461ZM14.9505 7.16811C14.9505 3.88183 12.2864 1.21777 9.00013 1.21777V4.21777C10.6296 4.21777 11.9505 5.53868 11.9505 7.16811L14.9505 7.16811ZM14.9505 7.43616V7.16811L11.9505 7.16811V7.43616L14.9505 7.43616ZM13.7922 11.0505C14.5455 9.99588 14.9505 8.73221 14.9505 7.43616L11.9505 7.43616C11.9505 8.10694 11.7409 8.76097 11.351 9.30681L13.7922 11.0505ZM10.2295 16.0382L13.7922 11.0505L11.351 9.30681L7.78833 14.2945L10.2295 16.0382ZM7.77069 16.0382C8.37322 16.8818 9.62705 16.8818 10.2296 16.0382L7.78827 14.2946C8.38219 13.463 9.61808 13.463 10.212 14.2946L7.77069 16.0382ZM4.20808 11.0505L7.77074 16.0382L10.2119 14.2945L6.64928 9.30681L4.20808 11.0505ZM3.0498 7.43616C3.0498 8.73221 3.45477 9.99588 4.20808 11.0505L6.64928 9.30681C6.2594 8.76097 6.0498 8.10694 6.0498 7.43616H3.0498ZM3.0498 7.1681V7.43616H6.0498V7.1681H3.0498ZM9.00013 1.21777C5.71386 1.21777 3.0498 3.88183 3.0498 7.1681H6.0498C6.0498 5.53868 7.37071 4.21777 9.00013 4.21777V1.21777ZM9.21916 6.73982C9.35757 6.80648 9.4581 6.93253 9.49228 7.0823L12.4171 6.41474C12.1797 5.37489 11.4818 4.49969 10.5208 4.03691L9.21916 6.73982ZM8.78111 6.73982C8.91952 6.67317 9.08075 6.67317 9.21916 6.73982L10.5208 4.03691C9.55984 3.57413 8.44043 3.57413 7.47946 4.03691L8.78111 6.73982ZM8.50799 7.0823C8.54217 6.93253 8.6427 6.80648 8.78111 6.73982L7.47946 4.03691C6.51848 4.49969 5.82054 5.37488 5.5832 6.41474L8.50799 7.0823ZM8.60546 7.50937C8.50968 7.38927 8.4738 7.23208 8.50799 7.0823L5.5832 6.41474C5.34586 7.4546 5.59495 8.54594 6.25997 9.37984L8.60546 7.50937ZM9.00013 7.69944C8.84651 7.69944 8.70124 7.62948 8.60546 7.50937L6.25997 9.37984C6.92498 10.2137 7.93354 10.6994 9.00013 10.6994V7.69944ZM9.39481 7.50937C9.29902 7.62948 9.15376 7.69944 9.00013 7.69944V10.6994C10.0667 10.6994 11.0753 10.2137 11.7403 9.37984L9.39481 7.50937ZM9.49228 7.0823C9.52647 7.23208 9.49059 7.38927 9.39481 7.50937L11.7403 9.37984C12.4053 8.54594 12.6544 7.4546 12.4171 6.41474L9.49228 7.0823Z" fill="#414141"/>
</svg>
